# xmcd
#
# Track frame offsets:
#	150
#	15064
#	33141
#	49856
#	66414
#	82201
#	101762
#	117669
#	138115
#	154857
#	170825
#	189083
#	203701
#	220703
#	235363
#	249459
#	266974
#	282246
#	298263
#
# Disc length: 4165 seconds
#
# Revision: 1
# Processed by: cddbd v1.5.2PL0 Copyright (c) Steve Scherf et al.
# Submitted via: audiograbber 1.83.01
#
DISCID=1c104313
DTITLE=Various Artist - Songs That Make Us Country [Disc 1]
DYEAR=2013
DGENRE=Country
TTITLE0=McAlister Kemp - Songs That Make Us Country
TTITLE1=Shania Twain - Whose Bed Have Your Boots Been Under? (Album Version)
TTITLE2=Lee Kernaghan - She's My Ute
TTITLE3=Craig Campbell - Family Man
TTITLE4=Jasmine Rae - Hunky Country Boys
TTITLE5=Catherine Britt - Poor Man's Pride
TTITLE6=Toby Keith and Willie Nelson - Beer For My Horses (Album Version)
TTITLE7=Corb Lund - Cows Around
TTITLE8=Adam Brand - New England Highway
TTITLE9=Doc Walker - Country Girl
TTITLE10=Joe Nichols - The Impossible (Album Version)
TTITLE11=Steve Forde - Guns and Guitars
TTITLE12=Jamey Johnson - Between Jennings And Jones (Album Version)
TTITLE13=Dean Brody - People Know You By Your First Name
TTITLE14=Shea Fisher - Getaway Heart
TTITLE15=Jayne Denham - Feral Kev and General Leeroy
TTITLE16=Adam Toms - Rowdy Together
TTITLE17=Peter McWhirter - Get Away
TTITLE18=Doug Bruce - Honky Tonk Shoes
EXTD=
EXTT0=
EXTT1=
EXTT2=
EXTT3=
EXTT4=
EXTT5=
EXTT6=
EXTT7=
EXTT8=
EXTT9=
EXTT10=
EXTT11=
EXTT12=
EXTT13=
EXTT14=
EXTT15=
EXTT16=
EXTT17=
EXTT18=
PLAYORDER=
